<?xml version="1.0" encoding="UTF-8" standalone="no"?>
<!-- Created with Inkscape (http://www.inkscape.org/) -->

<svg
   width="1200"
   height="630"
   viewBox="0 0 1200 630"
   version="1.1"
   id="svg1"
   xml:space="preserve"
   inkscape:version="1.4.2 (ebf0e940d0, 2025-05-08)"
   sodipodi:docname="logo_text.svg"
   inkscape:export-filename="logo_text_plain.svg"
   inkscape:export-xdpi="96"
   inkscape:export-ydpi="96"
   xmlns:inkscape="http://www.inkscape.org/namespaces/inkscape"
   xmlns:sodipodi="http://sodipodi.sourceforge.net/DTD/sodipodi-0.dtd"
   xmlns="http://www.w3.org/2000/svg"
   xmlns:svg="http://www.w3.org/2000/svg"><sodipodi:namedview
     id="namedview1"
     pagecolor="#ffffff"
     bordercolor="#000000"
     borderopacity="0.25"
     inkscape:showpageshadow="2"
     inkscape:pageopacity="0.0"
     inkscape:pagecheckerboard="0"
     inkscape:deskcolor="#d1d1d1"
     inkscape:document-units="px"
     inkscape:zoom="0.63286057"
     inkscape:cx="718.95773"
     inkscape:cy="567.26555"
     inkscape:window-width="2536"
     inkscape:window-height="1351"
     inkscape:window-x="45"
     inkscape:window-y="29"
     inkscape:window-maximized="0"
     inkscape:current-layer="layer1" /><defs
     id="defs1" /><g
     inkscape:label="图层 1"
     inkscape:groupmode="layer"
     id="layer1"><path
       id="text2"
       style="font-style:normal;font-variant:normal;font-weight:normal;font-stretch:normal;font-size:341.333px;line-height:0;font-family:'Adwaita Sans';-inkscape-font-specification:'Adwaita Sans, @opsz=32,wght=800';font-variant-ligatures:normal;font-variant-caps:normal;font-variant-numeric:normal;font-variant-east-asian:normal;font-variation-settings:'opsz' 32, 'wght' 800;text-align:start;writing-mode:lr-tb;direction:ltr;text-anchor:start;fill:#000000;stroke-width:0.780238"
       d="m 214.97439,215 c -15.17127,0 -28.47971,2.55644 -39.92319,7.67134 -11.44348,5.02818 -20.37187,12.05034 -26.78716,21.06642 -6.32859,9.01607 -9.4939,19.5493 -9.4939,31.59963 0,14.13097 4.81147,25.83456 14.4344,35.11072 9.62292,9.18946 23.88448,15.73581 42.78355,19.637 l 19.89608,4.03072 c 7.80237,1.64717 14.13148,3.51056 18.98629,5.5912 4.9415,1.99394 8.53825,4.37901 10.79227,7.15319 2.34071,2.68749 3.51108,5.85129 3.51108,9.4924 0,4.24795 -1.38608,7.97628 -4.16026,11.18392 -2.68749,3.12094 -6.503,5.54734 -11.4445,7.2812 -4.85481,1.73386 -10.6194,2.6013 -17.29476,2.6013 -7.36892,0 -13.78371,-1.17036 -19.24537,-3.51107 -5.37497,-2.34072 -9.58061,-5.72175 -12.61486,-10.14309 -3.03426,-4.42135 -4.63757,-9.71014 -4.81096,-15.86535 H 135 c 0,14.21765 3.1638,26.35573 9.49238,36.41212 6.3286,9.9697 15.51859,17.59769 27.56892,22.88597 12.05033,5.20158 26.65764,7.80238 43.82287,7.80238 16.64505,0 30.9066,-2.47077 42.78354,-7.41226 11.87695,-4.94151 20.97974,-12.0065 27.30834,-21.19596 6.32859,-9.27616 9.49238,-20.41675 9.49238,-33.4207 0,-1.9616 -0.0834,-3.86869 -0.25145,-5.72226 -3.78545,-5.0636 -8.39723,-9.54182 -14.10828,-13.1528 -11.97233,-7.57106 -25.93924,-11.31629 -40.54951,-14.64927 -6.96217,-1.58895 -13.78299,-2.96827 -20.46448,-4.13587 -0.33897,-0.0597 -0.50899,-0.12105 -0.50899,-0.18135 0.005,-0.0593 0.17531,-0.11976 0.50899,-0.17981 13.74987,-2.46644 27.55674,-5.25169 40.77657,-9.64478 -7.55422,-3.14639 -16.52502,-5.76612 -26.91211,-7.8603 l -17.03419,-3.38153 c -7.3689,-1.47378 -13.35074,-3.1643 -17.94547,-5.07155 -4.59473,-1.90725 -7.97577,-4.11793 -10.14309,-6.63202 -2.16732,-2.60079 -3.25201,-5.67739 -3.25201,-9.23181 0,-4.07456 1.25756,-7.63001 3.77166,-10.66426 2.60079,-3.12095 6.1547,-5.54735 10.66275,-7.28121 4.59473,-1.73386 9.79632,-2.6013 15.60476,-2.6013 9.27615,0 16.77562,2.29788 22.49737,6.8926 5.80842,4.59474 9.01659,10.92233 9.62343,18.98479 h 43.30321 C 290.61412,265.19431 287.27593,253.838 281.03403,244.38846 274.87883,234.93892 266.209,227.69952 255.0256,222.67134 243.84219,217.55644 230.49244,215 214.97439,215 Z m 45.89689,90.30494 c 0.26387,0.1099 0.52592,0.22101 0.78633,0.33221 7.80237,3.20763 14.17433,7.06599 19.11583,11.57403 5.0282,4.50804 8.71368,9.75247 11.05438,15.7343 1.78876,4.34409 2.91854,9.11188 3.38916,14.30334 7.62071,10.19379 11.89603,22.76228 15.07293,35.41396 2.39099,9.52558 4.47128,19.22718 6.24038,29.10502 0.0104,0.0563 0.0549,0.10013 0.11125,0.10972 0.008,0.002 0.015,0.002 0.0228,0.002 v -193.754 c -0.0535,0.003 -0.0992,0.0423 -0.10972,0.0975 -3.19347,17.22008 -6.57016,35.19541 -13.61303,51.33112 -7.15823,16.40575 -18.43657,26.87345 -35.34691,33.35213 -2.22184,0.85123 -4.46404,1.64779 -6.72345,2.39863 z m 55.79311,-87.17942 c 0.009,-5.2e-4 0.0193,0.002 0.0289,0.003 0.0488,0.009 0.087,0.0463 0.096,0.0945 2.41929,13.60146 5.27887,27.32631 9.43753,40.53428 2.04717,6.4986 4.65956,12.56838 7.83743,18.20911 6.88723,12.22768 17.3347,19.84654 29.41437,25.05753 v -83.90309 h -46.81429 z m 46.81429,83.89845 v 26.22179 c 7.22342,-3.11029 14.90524,-5.42464 22.76252,-7.3254 9.02242,-2.18194 18.02151,-4.05638 26.99897,-5.62167 0.13803,-0.0237 0.16369,-0.0894 0.0763,-0.19811 -0.061,-0.0713 -0.13923,-0.11553 -0.23468,-0.1341 -11.09325,-1.94932 -22.07892,-4.38209 -32.95745,-7.29797 -5.75333,-1.5435 -11.35627,-3.36281 -16.64557,-5.64454 z m 0,26.22179 c -2.90707,1.25173 -5.74026,2.63195 -8.48052,4.16635 -17.69678,9.91097 -25.61669,26.89251 -30.72492,45.69726 -3.02464,11.13865 -5.5166,22.35854 -7.47626,33.65843 -0.0106,0.0628 -0.0629,0.10708 -0.12345,0.11125 h 46.80515 z" /><g
       id="text1"
       style="font-size:128px;line-height:0.93;font-family:'Adwaita Sans';-inkscape-font-specification:'Adwaita Sans, @opsz=32,wght=700';font-variation-settings:'opsz' 32, 'wght' 700"
       aria-label="Starlight&#10;Intelligence"><path
         d="m 487.78528,300.79251 q -11.9375,0 -20.375,-3.75 -8.4375,-3.8125 -12.9375,-11 -4.5,-7.1875 -4.5,-17.3125 h 18.5625 q 0.125,5.125 2.4375,8.75 2.375,3.625 6.6875,5.5625 4.3125,1.9375 10.25,1.9375 5.375,0 9.3125,-1.4375 4,-1.5 6.1875,-4.1875 2.25,-2.6875 2.25,-6.3125 0,-3 -1.75,-5.1875 -1.6875,-2.25 -5.375,-3.9375 -3.625,-1.6875 -9.5625,-2.9375 l -9.8125,-2.125 q -13.875,-3 -20.625,-9.4375 -6.75,-6.4375 -6.75,-16.4375 0,-8.5 4.4375,-14.8125 4.4375,-6.375 12.375,-9.9375 8,-3.5625 18.5625,-3.5625 10.6875,0 18.5,3.625 7.8125,3.625 12.125,10.375 4.375,6.6875 4.6875,16.0625 h -18 q -0.5,-6.625 -5.125,-10.4375 -4.625,-3.8125 -12.125,-3.8125 -4.6875,0 -8.375,1.5 -3.625,1.4375 -5.75,4.0625 -2.0625,2.625 -2.0625,6 0,2.875 1.625,5 1.625,2.0625 5.1875,3.625 3.5625,1.5625 9.25,2.8125 l 8.9375,1.9375 q 7.4375,1.625 12.875,4 5.4375,2.3125 8.9375,5.5625 3.5,3.1875 5.1875,7.375 1.6875,4.1875 1.6875,9.4375 0,8.9375 -4.5,15.5 -4.4375,6.5 -12.75,10 -8.25,3.5 -19.6875,3.5 z m 85.75,-67.5 v 14.4375 h -43.3125 v -14.4375 z m -31.9375,-18 h 18.4375 v 63.625 q 0,3.3125 1.3125,4.625 1.375,1.3125 5.125,1.3125 1.5625,0 3.6875,0 2.1875,0 3.375,0 v 14.4375 q -1.6875,0 -4.6875,0 -3,0 -6.0625,0 -10.875,0 -16.0625,-4.25 -5.125,-4.25 -5.125,-13.25 z m 62.57495,85.125 q -6.5625,0 -11.6875,-2.1875 -5.125,-2.1875 -8.0625,-6.5625 -2.9375,-4.4375 -2.9375,-11 0,-5.5625 2.0625,-9.25 2.0625,-3.75 5.625,-6 3.625,-2.3125 8.25,-3.5 4.6875,-1.1875 9.8125,-1.625 6.0625,-0.625 9.625,-1.1875 3.5625,-0.5625 5.125,-1.625 1.5625,-1.0625 1.5625,-3.1875 v -0.4375 q 0,-2.4375 -1.3125,-4.25 -1.3125,-1.875 -3.75,-2.9375 -2.375,-1.0625 -5.75,-1.0625 -3.375,0 -6,1.0625 -2.5625,1.0625 -4.0625,3 -1.5,1.9375 -1.75,4.5 h -17.3125 q 0.4375,-6.8125 4,-11.8125 3.625,-5 10.125,-7.6875 6.5,-2.75 15.5625,-2.75 6.75,0 12.0625,1.5625 5.3125,1.5 8.9375,4.4375 3.6875,2.9375 5.5625,7.125 1.875,4.1875 1.875,9.5 v 44.75 h -18 v -9.3125 h -0.25 q -1.75,3.25 -4.3125,5.5625 -2.5625,2.3125 -6.25,3.625 -3.6875,1.25 -8.75,1.25 z m 5.125,-12.8125 q 4.4375,0 7.625,-1.625 3.25,-1.625 5,-4.4375 1.75,-2.8125 1.75,-6.375 v -6.625 q -0.8125,0.4375 -2.125,0.875 -1.3125,0.375 -3.0625,0.75 -1.75,0.3125 -3.8125,0.6875 -2.0625,0.375 -4.25,0.6875 -3.1875,0.5 -5.75,1.5625 -2.5625,1 -4.0625,2.75 -1.5,1.6875 -1.5,4.3125 0,2.3125 1.25,4 1.25,1.6875 3.5625,2.5625 2.3125,0.875 5.375,0.875 z m 45.4375,11.6875 v -66 h 17.75 v 11.25 h 0.1875 q 1.8125,-5.9375 5.6875,-8.8125 3.875,-2.875 10.4375,-2.875 1.625,0 2.9375,0.0625 1.375,0 2.5,0.0625 v 15.6875 q -1,-0.0625 -3.3125,-0.1875 -2.25,-0.125 -4.625,-0.125 -3.75,0 -6.75,1.75 -3,1.6875 -4.6875,5.0625 -1.6875,3.375 -1.6875,8.375 v 35.75 z m 69.22485,0 q -11.3125,0 -16.375,-4.125 -5,-4.1875 -5,-13.75 v -75.25 h 18.4375 v 73.5 q 0,3.0625 1.25,4.3125 1.25,1.1875 4.3125,1.1875 0.625,0 1.375,0 0.75,0 1.3125,0 v 14.125 q -1.3125,0 -2.6875,0 -1.3125,0 -2.625,0 z m 13.5625,0 v -66 h 18.4375 v 66 z m 9.1875,-74.3125 q -4.5625,0 -7.5625,-2.75 -3,-2.8125 -3,-7.0625 0,-4.25 3,-7 3,-2.8125 7.5,-2.8125 4.5625,0 7.5625,2.8125 3,2.75 3,7 0,4.25 -3,7.0625 -3,2.75 -7.5,2.75 z m 53.4375,101.3125 q -9.375,0 -15.9375,-2.6875 -6.5,-2.625 -10.25,-7.4375 -3.6875,-4.8125 -4.625,-11.25 h 17.75 q 0.6875,2.5 2.4375,4.25 1.8125,1.75 4.5,2.625 2.6875,0.9375 6.125,0.9375 6.75,0 10.375,-3.6875 3.6875,-3.6875 3.6875,-10.8125 v -10.125 h -0.0625 q -1.9375,3.875 -4.875,6.375 -2.875,2.5 -6.625,3.6875 -3.6875,1.1875 -8,1.1875 -8.625,0 -15.0625,-4.3125 -6.4375,-4.3125 -10,-11.875 -3.5,-7.5625 -3.5,-17.375 0,-9.9375 3.5625,-17.5625 3.625,-7.6875 10,-12 6.4375,-4.3125 14.875,-4.3125 4.3125,0 7.9375,1.1875 3.6875,1.1875 6.625,3.625 3,2.4375 5.0625,6.125 h 0.0625 v -9.5625 h 18.1875 v 63.4375 q 0,10.4375 -4.0625,16.9375 -4.0625,6.5625 -11.375,9.5625 -7.25,3.0625 -16.8125,3.0625 z m -0.75,-41.6875 q 4.6875,0 8.125,-2.3125 3.5,-2.375 5.4375,-6.6875 1.9375,-4.3125 1.9375,-10.0625 0,-5.75 -1.9375,-10 -1.9375,-4.3125 -5.4375,-6.625 -3.4375,-2.375 -8.125,-2.375 -4.4375,0 -7.75,2.25 -3.3125,2.1875 -5.1875,6.4375 -1.8125,4.25 -1.8125,10.3125 0,6.0625 1.8125,10.3125 1.875,4.25 5.1875,6.5 3.3125,2.25 7.75,2.25 z m 64.5,-22 v 36.6875 h -18.4375 v -93.125 h 18.4375 v 44.3125 h -3.4375 q 3.125,-8.75 8.9375,-13.625 5.8125,-4.9375 14.8125,-4.9375 7.0625,0 12.25,3.0625 5.1875,3 8,8.8125 2.875,5.8125 2.875,14.1875 v 41.3125 h -18.375 v -37.9375 q 0,-6.625 -3.1875,-10.0625 -3.125,-3.5 -8.9375,-3.5 -3.8125,0 -6.75,1.5625 -2.9375,1.5625 -4.5625,4.875 -1.625,3.25 -1.625,8.375 z m 94.4375,-29.3125 v 14.4375 h -43.3125 v -14.4375 z m -31.9375,-18 h 18.4375 v 63.625 q 0,3.3125 1.3125,4.625 1.375,1.3125 5.125,1.3125 1.5625,0 3.6875,0 2.1875,0 3.375,0 v 14.4375 q -1.6875,0 -4.6875,0 -3,0 -6.0625,0 -10.875,0 -16.0625,-4.25 -5.125,-4.25 -5.125,-13.25 z"
         id="path4" /><path
         style="-inkscape-font-specification:'Adwaita Sans, @opsz=32';font-variation-settings:'opsz' 32"
         d="m 466.09778,325.20751 v 93.125 h -11.25 v -93.125 z m 27.75,54.5 v 38.625 h -10.625 v -66 h 10.375 v 16 h -3 q 3.25,-8.9375 9,-13.0625 5.8125,-4.1875 13.625,-4.1875 6.6875,0 12.1875,2.9375 5.5,2.875 8.75,8.6875 3.3125,5.8125 3.3125,14.625 v 41 h -10.625 v -40.25 q 0,-8.5625 -4.125,-12.875 -4.0625,-4.375 -11.5,-4.375 -4.8125,0 -8.75,1.9375 -3.9375,1.9375 -6.3125,6.125 -2.3125,4.125 -2.3125,10.8125 z m 88.1875,-27.375 v 9.125 h -35.75 v -9.125 z m -24,-18 h 10.625 v 68 q 0,3.8125 1.5625,5.375 1.625,1.5 5.6875,1.5 1.4375,0 3.0625,0 1.6875,0 3.0625,0 v 9.125 q -1.625,0 -3.5625,0 -1.9375,0 -3.5625,0 -8.5,0 -12.6875,-3.6875 -4.1875,-3.75 -4.1875,-11.1875 z m 61,85.5 q -9.6875,0 -16.5625,-4.4375 -6.8125,-4.4375 -10.4375,-12.1875 -3.625,-7.8125 -3.625,-17.75 0,-10.0625 3.8125,-17.875 3.8125,-7.8125 10.5625,-12.25 6.75,-4.5 15.5,-4.5 6.875,0 12.375,2.5 5.5625,2.5 9.5,7.125 3.9375,4.625 6,11 2.125,6.3125 2.125,14 v 2.9375 h -54.25 v -9.125 h 48.3125 l -4.5625,3.1875 q 0,-6.75 -2.4375,-11.6875 -2.375,-5 -6.75,-7.6875 -4.375,-2.75 -10.3125,-2.75 -5.875,0 -10.25,2.75 -4.3125,2.6875 -6.75,7.6875 -2.375,4.9375 -2.375,11.6875 v 4.5 q 0,6.8125 2.3125,12.0625 2.375,5.25 6.875,8.25 4.5,2.9375 10.9375,2.9375 4.6875,0 8.25,-1.4375 3.5625,-1.5 5.875,-4.125 2.375,-2.625 3.375,-6.0625 h 10.625 q -1.25,6.3125 -5.1875,11.125 -3.9375,4.75 -9.875,7.4375 -5.875,2.6875 -13.0625,2.6875 z m 58.25,-1.5 q -9.125,0 -13,-3.375 -3.875,-3.4375 -3.875,-11.5 v -78.25 h 10.625 v 77.125 q 0,4.1875 1.3125,5.5625 1.375,1.3125 5.4375,1.3125 0.5,0 1.25,0 0.8125,0 1.3125,0 v 9.125 q -0.75,0 -1.5625,0 -0.75,0 -1.5,0 z m 29.375,0 q -9.125,0 -13,-3.375 -3.875,-3.4375 -3.875,-11.5 v -78.25 h 10.625 v 77.125 q 0,4.1875 1.3125,5.5625 1.375,1.3125 5.4375,1.3125 0.5,0 1.25,0 0.8125,0 1.3125,0 v 9.125 q -0.75,0 -1.5625,0 -0.75,0 -1.5,0 z m 12.5,0 v -66 h 10.625 v 66 z m 5.3125,-78.875 q -3,0 -5.125,-2.125 -2.125,-2.125 -2.125,-5.125 0,-3 2.125,-5.125 2.125,-2.125 5.125,-2.125 3,0 5.125,2.125 2.125,2.125 2.125,5.125 0,3 -2.125,5.125 -2.125,2.125 -5.125,2.125 z m 48.6875,105.875 q -7.4375,0 -13.4375,-2.3125 -5.9375,-2.25 -9.75,-6.75 -3.75,-4.4375 -4.5625,-10.9375 h 10.875 q 0.9375,3.5625 3.3125,5.875 2.375,2.375 5.8125,3.5625 3.5,1.1875 7.75,1.1875 8.625,0 13.5625,-4.625 4.9375,-4.5625 4.9375,-13 v -10 h -0.0625 q -2.4375,3.8125 -5.625,6.3125 -3.1875,2.5 -7,3.6875 -3.8125,1.25 -8.1875,1.25 -8.5625,0 -15.0625,-4.3125 -6.4375,-4.375 -10,-12.0625 -3.5625,-7.75 -3.5625,-17.875 0,-10.1875 3.5625,-17.875 3.5625,-7.75 10,-12.0625 6.5,-4.3125 15.0625,-4.3125 4.3125,0 8.1875,1.1875 3.9375,1.1875 7.1875,3.75 3.3125,2.5625 5.5625,6.625 h 0.0625 v -10.3125 h 10.375 v 66 q 0,9.75 -4.0625,15.6875 -4,5.9375 -10.625,8.625 -6.625,2.6875 -14.3125,2.6875 z m -0.75,-35.3125 q 6.125,0 10.625,-3.0625 4.5,-3.0625 6.9375,-8.625 2.4375,-5.5625 2.4375,-13 0,-7.5 -2.4375,-13.0625 -2.4375,-5.5625 -6.9375,-8.625 -4.5,-3.0625 -10.625,-3.0625 -5.6875,0 -10.125,2.8125 -4.375,2.8125 -6.875,8.3125 -2.5,5.5 -2.5,13.625 0,8.0625 2.5,13.5625 2.5,5.5 6.875,8.3125 4.4375,2.8125 10.125,2.8125 z m 72.75,9.8125 q -9.6875,0 -16.5625,-4.4375 -6.8125,-4.4375 -10.4375,-12.1875 -3.625,-7.8125 -3.625,-17.75 0,-10.0625 3.8125,-17.875 3.8125,-7.8125 10.5625,-12.25 6.75,-4.5 15.5,-4.5 6.875,0 12.375,2.5 5.5625,2.5 9.5,7.125 3.9375,4.625 6,11 2.125,6.3125 2.125,14 v 2.9375 h -54.25 v -9.125 h 48.3125 l -4.5625,3.1875 q 0,-6.75 -2.4375,-11.6875 -2.375,-5 -6.75,-7.6875 -4.375,-2.75 -10.3125,-2.75 -5.875,0 -10.25,2.75 -4.3125,2.6875 -6.75,7.6875 -2.375,4.9375 -2.375,11.6875 v 4.5 q 0,6.8125 2.3125,12.0625 2.375,5.25 6.875,8.25 4.5,2.9375 10.9375,2.9375 4.6875,0 8.25,-1.4375 3.5625,-1.5 5.875,-4.125 2.375,-2.625 3.375,-6.0625 h 10.625 q -1.25,6.3125 -5.1875,11.125 -3.9375,4.75 -9.875,7.4375 -5.875,2.6875 -13.0625,2.6875 z m 52,-40.125 v 38.625 h -10.625 v -66 h 10.375 v 16 h -3 q 3.25,-8.9375 9,-13.0625 5.8125,-4.1875 13.625,-4.1875 6.6875,0 12.1875,2.9375 5.5,2.875 8.75,8.6875 3.3125,5.8125 3.3125,14.625 v 41 h -10.625 v -40.25 q 0,-8.5625 -4.125,-12.875 -4.0625,-4.375 -11.5,-4.375 -4.8125,0 -8.75,1.9375 -3.9375,1.9375 -6.3125,6.125 -2.3125,4.125 -2.3125,10.8125 z m 86.625,40.125 q -9.125,0 -16.0625,-4.375 -6.875,-4.4375 -10.75,-12.1875 -3.8125,-7.75 -3.8125,-17.8125 0,-10.125 3.8125,-17.9375 3.875,-7.8125 10.75,-12.25 6.9375,-4.4375 16.0625,-4.4375 5.625,0 10.375,1.75 4.8125,1.6875 8.43752,4.8125 3.6875,3.0625 6,7.25 2.3125,4.1875 3,9.1875 h -10.75 q -0.5625,-2.9375 -1.93752,-5.375 -1.375,-2.4375 -3.5625,-4.1875 -2.125,-1.8125 -5,-2.8125 -2.875,-1 -6.5625,-1 -6.1875,0 -10.6875,3.125 -4.4375,3.0625 -6.8125,8.6875 -2.375,5.625 -2.375,13.1875 0,7.5 2.375,13.0625 2.375,5.5625 6.8125,8.625 4.4375,3.0625 10.6875,3.0625 3.6875,0 6.5,-0.9375 2.8125,-0.9375 4.8125,-2.6875 2.0625,-1.8125 3.4375,-4.25 1.375,-2.5 2.12502,-5.5 h 10.9375 q -0.6875,4.875 -3,9.0625 -2.3125,4.1875 -6,7.3125 -3.68752,3.125 -8.50002,4.875 -4.75,1.75 -10.3125,1.75 z m 66.93752,0 q -9.6875,0 -16.5625,-4.4375 -6.8125,-4.4375 -10.4375,-12.1875 -3.625,-7.8125 -3.625,-17.75 0,-10.0625 3.8125,-17.875 3.8125,-7.8125 10.5625,-12.25 6.75,-4.5 15.5,-4.5 6.875,0 12.375,2.5 5.5625,2.5 9.5,7.125 3.9375,4.625 6,11 2.125,6.3125 2.125,14 v 2.9375 h -54.25 v -9.125 h 48.3125 l -4.5625,3.1875 q 0,-6.75 -2.4375,-11.6875 -2.375,-5 -6.75,-7.6875 -4.375,-2.75 -10.3125,-2.75 -5.875,0 -10.25,2.75 -4.3125,2.6875 -6.75,7.6875 -2.375,4.9375 -2.375,11.6875 v 4.5 q 0,6.8125 2.3125,12.0625 2.375,5.25 6.875,8.25 4.5,2.9375 10.9375,2.9375 4.6875,0 8.25,-1.4375 3.5625,-1.5 5.875,-4.125 2.375,-2.625 3.375,-6.0625 h 10.625 q -1.25,6.3125 -5.1875,11.125 -3.9375,4.75 -9.875,7.4375 -5.875,2.6875 -13.0625,2.6875 z"
         id="path5" /></g></g></svg>
