<?xml version="1.0" encoding="UTF-8" standalone="no"?>
<!-- Created with Inkscape (http://www.inkscape.org/) -->

<svg
   width="512"
   height="512"
   viewBox="0 0 512 512"
   version="1.1"
   id="svg1"
   inkscape:version="1.4.2 (ebf0e940d0, 2025-05-08)"
   sodipodi:docname="logo.svg"
   xml:space="preserve"
   inkscape:export-filename="logo_plain.svg"
   inkscape:export-xdpi="96"
   inkscape:export-ydpi="96"
   xmlns:inkscape="http://www.inkscape.org/namespaces/inkscape"
   xmlns:sodipodi="http://sodipodi.sourceforge.net/DTD/sodipodi-0.dtd"
   xmlns="http://www.w3.org/2000/svg"
   xmlns:svg="http://www.w3.org/2000/svg"><sodipodi:namedview
     id="namedview1"
     pagecolor="#ffffff"
     bordercolor="#000000"
     borderopacity="0.25"
     inkscape:showpageshadow="2"
     inkscape:pageopacity="0.0"
     inkscape:pagecheckerboard="0"
     inkscape:deskcolor="#d1d1d1"
     inkscape:document-units="px"
     inkscape:zoom="2"
     inkscape:cx="237.75"
     inkscape:cy="284.5"
     inkscape:window-width="2536"
     inkscape:window-height="1351"
     inkscape:window-x="45"
     inkscape:window-y="29"
     inkscape:window-maximized="0"
     inkscape:current-layer="layer1"
     showguides="true" /><defs
     id="defs1"><rect
       x="149.55948"
       y="147.7503"
       width="203.23204"
       height="197.20142"
       id="rect1" /></defs><g
     inkscape:label="图层 1"
     inkscape:groupmode="layer"
     id="layer1"><path
       id="text2"
       style="font-style:normal;font-variant:normal;font-weight:normal;font-stretch:normal;font-size:341.333px;line-height:0;font-family:'Adwaita Sans';-inkscape-font-specification:'Adwaita Sans, @opsz=32,wght=800';font-variant-ligatures:normal;font-variant-caps:normal;font-variant-numeric:normal;font-variant-east-asian:normal;font-variation-settings:'opsz' 32, 'wght' 800;text-align:start;writing-mode:lr-tb;direction:ltr;text-anchor:start;fill:#000000"
       inkscape:label="text2"
       d="m 200.08398,127.83398 c -19.44442,0 -36.50131,3.27649 -51.16796,9.83204 -14.66666,6.44443 -26.10982,15.44445 -34.33204,27 -8.1111,11.55554 -12.16796,25.05557 -12.16796,40.5 0,18.11109 6.16667,33.11112 18.5,45 12.33332,11.77776 30.61178,20.16797 54.83398,25.16796 l 25.5,5.16602 c 9.99999,2.11111 18.11177,4.49935 24.33398,7.16602 6.33333,2.55555 10.94315,5.61241 13.83204,9.16796 2.99999,3.44445 4.5,7.49936 4.5,12.16602 0,5.44444 -1.77648,10.22288 -5.33204,14.33398 -3.44444,4 -8.33464,7.10982 -14.66796,9.33204 C 217.6938,334.88824 210.30555,336 201.75,336 c -9.44444,0 -17.66602,-1.5 -24.66602,-4.5 -6.88888,-3 -12.27908,-7.33334 -16.16796,-13 -3.88889,-5.66666 -5.9438,-12.4451 -6.16602,-20.33398 H 97.58398 c 0,18.2222 4.05492,33.77909 12.16602,46.66796 8.1111,12.77777 19.88955,22.55426 35.33398,29.33204 15.44443,6.66666 34.16604,10 56.16602,10 21.33331,0 39.61178,-3.16668 54.83398,-9.5 15.22221,-6.33333 26.8889,-15.38825 35,-27.16602 8.11111,-11.88888 12.16602,-26.16733 12.16602,-42.83398 0,-2.5141 -0.1069,-4.95834 -0.32227,-7.33399 -4.85167,-6.48982 -10.76239,-12.22937 -18.08203,-16.85742 -15.34446,-9.70352 -33.2453,-14.50364 -51.9707,-18.77539 -8.92314,-2.0365 -17.66511,-3.80431 -26.22852,-5.30078 -0.43444,-0.0764 -0.65234,-0.15515 -0.65234,-0.23242 0.007,-0.0761 0.22469,-0.1535 0.65234,-0.23047 17.62267,-3.16113 35.3184,-6.73087 52.26172,-12.36133 -9.68193,-4.0326 -21.17945,-7.3902 -34.49218,-10.07422 l -21.83204,-4.33398 c -9.44443,-1.88889 -17.11111,-4.05556 -23,-6.5 -5.88888,-2.44445 -10.22222,-5.27779 -13,-8.5 -2.77777,-3.33333 -4.16796,-7.27648 -4.16796,-11.83204 0,-5.22221 1.61176,-9.77908 4.83398,-13.66796 3.33333,-4 7.88824,-7.10982 13.66602,-9.33204 5.88888,-2.22222 12.55556,-3.33398 20,-3.33398 11.88887,0 21.50065,2.9451 28.83398,8.83398 7.44444,5.88889 11.55621,13.99871 12.33398,24.33204 h 55.5 C 297.02843,192.16603 292.74999,177.6111 284.75,165.5 c -7.88888,-12.1111 -19.00066,-21.38955 -33.33398,-27.83398 -14.33332,-6.55555 -31.44317,-9.83204 -51.33204,-9.83204 z m 58.82422,115.74024 c 0.3382,0.14086 0.67405,0.28327 1.00782,0.42578 9.99999,4.11111 18.16667,9.05621 24.5,14.83398 6.44443,5.77778 11.16797,12.49936 14.16796,20.16602 2.29257,5.56766 3.74057,11.67834 4.34375,18.33203 9.76715,13.06498 15.24667,29.17351 19.31836,45.38867 3.06444,12.20855 5.73067,24.6427 7.99805,37.30274 0.0127,0.0722 0.0703,0.12832 0.14258,0.14062 0.0102,0.002 0.0193,0.002 0.0293,0.002 V 131.83984 c -0.0686,0.004 -0.12708,0.0543 -0.14063,0.125 -4.09294,22.0703 -8.42072,45.10857 -17.44727,65.78907 -9.17443,21.02659 -23.62942,34.44262 -45.30273,42.74609 -2.84764,1.09099 -5.72138,2.11191 -8.61719,3.07422 z m 71.50782,-111.73438 c 0.0119,-6.7e-4 0.0248,0.002 0.0371,0.004 0.0625,0.0124 0.1114,0.0593 0.12305,0.12109 3.10072,17.43245 6.76572,35.02304 12.09571,51.95118 2.62378,8.32899 5.97197,16.10839 10.04492,23.33789 8.82709,15.67174 22.2172,25.43652 37.69922,32.11523 V 131.83398 h -60 z m 60,107.5293 v 33.60742 c 9.25798,-3.98634 19.10346,-6.95254 29.17382,-9.38867 11.56369,-2.7965 23.09745,-5.1989 34.60352,-7.20508 0.1769,-0.0303 0.20978,-0.1146 0.0977,-0.2539 -0.0782,-0.0914 -0.17844,-0.14808 -0.30079,-0.17188 -14.21776,-2.49835 -28.29766,-5.61634 -42.24023,-9.35351 -7.37382,-1.97824 -14.55489,-4.30998 -21.33398,-7.23438 z m 0,33.60742 c -3.72587,1.6043 -7.35706,3.37327 -10.86914,5.33985 -22.68125,12.70249 -32.83189,34.46706 -39.37891,58.56836 -3.87655,14.27596 -7.07039,28.65606 -9.58203,43.13867 -0.0135,0.0804 -0.0806,0.13724 -0.15821,0.14258 h 59.98829 z" /></g></svg>
